<svg width="64" height="64" viewBox="0 0 64 64" fill="none" xmlns="http://www.w3.org/2000/svg">
<g clip-path="url(#clip0)">
<path d="M31.7017 41.7363C29.9097 41.7363 28.4519 43.1942 28.4519 44.9862C28.4519 46.7782 29.9099 48.2361 31.7017 48.2361C33.4936 48.2361 34.9516 46.7782 34.9516 44.9862C34.9516 43.1942 33.4939 41.7363 31.7017 41.7363ZM31.7017 45.7362C31.2881 45.7362 30.9517 45.3998 30.9517 44.9862C30.9517 44.5726 31.2881 44.2362 31.7017 44.2362C32.1154 44.2362 32.4517 44.5726 32.4517 44.9862C32.4517 45.3998 32.1154 45.7362 31.7017 45.7362Z" fill="#52D2BC"/>
<path d="M41.7348 37.5937C41.5023 37.3612 41.1798 37.2273 40.851 37.2273C40.5223 37.2273 40.1998 37.361 39.9673 37.5937C39.7335 37.826 39.601 38.1485 39.601 38.4773C39.601 38.8062 39.7335 39.1287 39.9673 39.361C40.1998 39.5937 40.5223 39.7273 40.851 39.7273C41.1798 39.7273 41.5023 39.5937 41.7348 39.361C41.9673 39.1287 42.101 38.8062 42.101 38.4773C42.101 38.1485 41.9673 37.826 41.7348 37.5937Z" fill="#52D2BC"/>
<path d="M57.7492 17.9986H56.4016L38.7698 0.366718C38.2816 -0.121407 37.49 -0.121407 37.002 0.366718L32.485 4.88385L14.4195 0.0432182C13.7526 -0.135657 13.0671 0.260218 12.8885 0.927094L8.31451 17.9986H5.25076C2.35601 17.9986 0.00088501 20.3536 0.00088501 23.2485C0.00088501 23.3179 0.00351001 23.3867 0.00613501 23.4555C0.00326001 23.4899 0.00088501 23.5244 0.00088501 23.5595V57.7505C0.00088501 61.1965 2.80463 64.0002 6.25076 64.0002H50.9994C51.0187 64.0002 51.0378 63.999 51.0571 63.9987H57.7491C61.1952 63.9987 63.9989 61.1951 63.9989 57.7489V24.2484C63.999 20.8021 61.1954 17.9986 57.7492 17.9986ZM56.6325 20.4985H57.7492C59.817 20.4985 61.4991 22.1807 61.4991 24.2484V34.2662C61.4991 35.8999 60.17 37.2289 58.5365 37.2289H57.2492V32.2481C57.2492 28.8455 54.5156 26.0712 51.1294 26.0015L56.6325 20.4985ZM33.7425 7.16185C33.7426 7.16172 33.7428 7.16147 33.7429 7.16135L37.886 3.01822L54.2318 19.364L47.638 25.9577H45.3512L48.3423 22.9666C48.8304 22.4785 48.8304 21.687 48.3423 21.1989C47.3304 20.187 47.3304 18.5407 48.3423 17.5289C48.8304 17.0407 48.8304 16.2492 48.3423 15.761L41.4888 8.90772C41.0006 8.4196 40.2091 8.4196 39.7209 8.90772C38.709 9.91972 37.0626 9.91972 36.0509 8.90772C35.5628 8.4196 34.7711 8.4196 34.2831 8.90772L17.2331 25.9579H14.9464L33.7425 7.16185ZM30.0639 21.2616C27.2104 21.2616 24.8196 23.2765 24.2365 25.9579H20.7684L35.2766 11.4496C36.878 12.4041 38.8938 12.4041 40.4951 11.4496L45.8003 16.7547C44.8459 18.356 44.8459 20.372 45.8003 21.9732L41.8156 25.9579H35.8913C35.3081 23.2764 32.9175 21.2616 30.0639 21.2616ZM33.2871 25.9579H26.8411C27.3484 24.6732 28.6015 23.7616 30.0641 23.7616C31.5268 23.7616 32.7798 24.6732 33.2871 25.9579ZM13.6253 23.7435L16.9355 11.3893C17.8431 11.404 18.746 11.1722 19.5546 10.7051C20.3634 10.2382 21.0141 9.57435 21.4568 8.77897L27.0824 10.2863L18.9185 18.4502L13.6253 23.7435ZM14.9799 2.78147L30.4438 6.92497L29.1236 8.24522L21.0449 6.08047C20.7245 5.9946 20.3834 6.0396 20.0964 6.20535C19.8093 6.3711 19.5998 6.6441 19.514 6.96435C19.3345 7.63385 18.9051 8.19347 18.3049 8.5401C17.7045 8.88672 17.0051 8.97872 16.3355 8.79935C15.6689 8.6206 14.9833 9.01635 14.8046 9.68322L10.4329 25.9984H8.75888L14.9799 2.78147ZM5.25076 20.4985H7.64438L6.17063 25.9984H5.25063C3.73426 25.9984 2.50076 24.7647 2.50076 23.2485C2.50088 21.7321 3.73463 20.4985 5.25076 20.4985ZM61.4991 57.7489C61.4991 59.8166 59.8169 61.4987 57.7492 61.4987H55.997C56.7829 60.4537 57.2492 59.1556 57.2492 57.7504V52.7284H57.9992C59.3047 52.7284 60.5131 52.308 61.4991 51.5972V57.7489ZM61.4991 46.7286C61.4991 48.6585 59.929 50.2285 57.9992 50.2285H31.75C28.8553 50.2285 26.5001 47.8735 26.5001 44.9786C26.5001 42.0837 28.8551 39.7287 31.75 39.7287H35.5383C36.2286 39.7287 36.7883 39.169 36.7883 38.4787C36.7883 37.7885 36.2286 37.2287 35.5383 37.2287H31.75C27.4768 37.2287 24.0003 40.7052 24.0003 44.9785C24.0003 49.2517 27.4768 52.7282 31.75 52.7282H54.7494V57.7502C54.7494 59.7986 53.0983 61.469 51.0573 61.5001H8.50063V47.424C8.50063 46.7337 7.94101 46.174 7.25063 46.174C6.56026 46.174 6.00063 46.7337 6.00063 47.424V61.491C4.04913 61.3619 2.50076 59.734 2.50076 57.7505V27.718C3.30113 28.2122 4.24301 28.4982 5.25063 28.4982H50.9992C53.067 28.4982 54.7491 30.1805 54.7491 32.2481V37.2289H45.7113C45.0209 37.2289 44.4613 37.7886 44.4613 38.4789C44.4613 39.1691 45.0209 39.7289 45.7113 39.7289H58.5365C59.6281 39.7289 60.6451 39.4057 61.4991 38.852V46.7286Z" fill="#52D2BC"/>
<path d="M8.13451 41.6648C7.90201 41.4325 7.57951 41.2986 7.25076 41.2986C6.92201 41.2986 6.59951 41.4323 6.36701 41.6648C6.13451 41.8973 6.00076 42.2198 6.00076 42.5486C6.00076 42.8773 6.13451 43.1998 6.36701 43.4323C6.59951 43.6648 6.92201 43.7986 7.25076 43.7986C7.57951 43.7986 7.90201 43.6648 8.13451 43.4323C8.36701 43.1998 8.50076 42.8773 8.50076 42.5486C8.50064 42.2198 8.36689 41.8973 8.13451 41.6648Z" fill="#52D2BC"/>
</g>
<defs>
<clipPath id="clip0">
<rect width="64" height="64" fill="white"/>
</clipPath>
</defs>
</svg>
