<svg width="64" height="64" viewBox="0 0 64 64" fill="none" xmlns="http://www.w3.org/2000/svg">
<g clip-path="url(#clip0)">
<path d="M55.2192 46.9335C55.558 45.1351 55.5493 43.2886 55.1936 41.4935L60.0789 29.7036C60.0795 29.6958 60.0795 29.688 60.0789 29.6801C60.8706 27.5127 62.0308 25.4984 63.5083 23.726C63.8759 23.3377 64.0238 22.7907 63.9019 22.27L61.8987 13.6193C61.8748 13.5289 61.839 13.4421 61.792 13.3612C61.7835 13.3452 61.7803 13.326 61.7717 13.3111C61.7632 13.2961 61.7259 13.2599 61.7045 13.2321C61.6609 13.1682 61.6105 13.1092 61.5541 13.0561C61.517 13.03 61.4782 13.0065 61.4379 12.9857C61.3859 12.9475 61.3305 12.9139 61.2725 12.8855C61.1921 12.8551 61.1083 12.8347 61.0229 12.8247C60.9984 12.8247 60.9771 12.8087 60.9525 12.8065C60.7481 12.7929 60.5441 12.8385 60.3648 12.9377C60.3488 12.9463 60.3296 12.9495 60.3136 12.9591H60.3029L52.7712 17.6599C52.3151 17.9423 52.032 18.4356 52.0181 18.9719C51.8089 21.275 51.2023 23.5244 50.2251 25.6204V25.6321L47.7835 31.534C46.5851 30.897 45.3022 30.4337 43.9733 30.158C44.4764 26.6859 44.6613 23.1752 44.5259 19.6695C46.5115 17.2871 47.4644 14.211 47.1733 11.1233C46.5067 4.90681 40.8885 0.417209 40.6485 0.228409C40.2878 -0.0556521 39.7858 -0.0770153 39.4023 0.175374C39.0187 0.427764 38.8397 0.897271 38.9579 1.34094C39.5072 3.40388 39.0315 5.58094 34.9739 10.0577C33.1508 11.8181 32.573 14.5059 33.5115 16.8599C33.8703 17.7602 34.3844 18.5906 35.0304 19.3132C34.7723 20.9612 34.5696 22.5217 34.4299 24.0417C34.1893 26.5558 34.1272 29.0837 34.2443 31.6065C33.2927 32.1225 32.4018 32.7432 31.5883 33.4572L26.4149 11.3345C26.4149 11.3121 26.3936 11.2961 26.3872 11.2759C26.3698 11.2048 26.3448 11.1357 26.3125 11.07L21.0283 1.31108C20.4994 0.334301 19.3822 -0.167635 18.3008 0.0856578C17.2193 0.33895 16.4412 1.28479 16.4011 2.39481L16 13.4828C16.0003 13.5628 16.0092 13.6426 16.0267 13.7207C16.0267 13.7377 16.0267 13.7527 16.0267 13.7687L21.3045 36.2935C20.472 36.3302 19.6455 36.4536 18.8384 36.6615L13.0325 22.6401C12.567 21.5683 11.3322 21.0626 10.2485 21.4999L1.37494 25.1735C0.288934 25.6268 -0.227169 26.872 0.219742 27.9607L8.09388 46.9559C3.47895 47.1982 -0.103274 51.0722 0.0158409 55.692C0.134956 60.3117 3.91206 63.996 8.53334 64.0001H55.4667C58.5153 63.9559 61.3088 62.2886 62.7949 59.6263C64.2809 56.964 64.2338 53.7111 62.6712 51.093C61.1085 48.4749 58.2679 46.8893 55.2192 46.9335ZM54.1323 19.3239L58.6037 16.5335L57.0208 20.3564C56.7952 20.9007 57.0535 21.5249 57.5979 21.7505C58.1422 21.9762 58.7664 21.7178 58.992 21.1735L60.5749 17.3505L61.76 22.4844C60.4921 24.0312 59.4506 25.7505 58.6667 27.5905C57.5546 28.106 56.2775 28.1328 55.1448 27.6643C54.0121 27.1958 53.1271 26.2748 52.704 25.1244C53.4532 23.2685 53.9341 21.3154 54.1323 19.3239ZM51.6789 27.6983C52.3846 28.561 53.3004 29.2277 54.3381 29.6343C55.1631 29.9891 56.0503 30.1762 56.9483 30.1847C57.1643 30.1839 57.3801 30.1707 57.5947 30.1452L54.1909 38.3585C53.1717 36.1114 51.5951 34.1621 49.6107 32.6956L51.6789 27.6983ZM37.0656 20.0801L42.4245 20.4076C42.4576 21.4039 42.4459 22.4343 42.4128 23.4807C40.6276 23.6082 38.8335 23.5216 37.0688 23.2225C36.9344 23.2033 36.8032 23.1884 36.6699 23.1703C36.7765 22.1655 36.9067 21.1479 37.0635 20.0801H37.0656ZM36.5568 11.4903C39.3888 8.36601 40.8565 5.96281 41.1979 3.70361C43.2335 5.79806 44.5772 8.46687 45.0475 11.3495C45.2715 13.8589 44.4956 16.3553 42.8885 18.2956C40.7815 18.1676 38.6976 18.0396 36.6368 17.9116C35.7513 17.0838 35.2419 15.9305 35.2264 14.7185C35.2109 13.5064 35.6906 12.3405 36.5547 11.4903H36.5568ZM36.4757 25.2961L36.7851 25.3367C38.1595 25.5492 39.547 25.6672 40.9376 25.6897C41.3792 25.6897 41.8443 25.6545 42.3104 25.6183C42.2133 26.9911 42.0544 28.4247 41.8528 29.9063C41.5893 29.8924 41.3312 29.8668 41.0667 29.8668C39.4562 29.8697 37.8579 30.1449 36.3392 30.6807C36.29 28.8847 36.3349 27.0874 36.4736 25.2961H36.4757ZM28.2251 37.7697L25.1733 24.7703C25.0307 24.2063 24.4624 23.8607 23.896 23.9933C23.3296 24.126 22.9739 24.688 23.0965 25.2567L25.8389 36.9569C25.0849 36.6873 24.306 36.4933 23.5136 36.3777L18.832 16.3991C19.4878 16.6977 20.1999 16.8526 20.9205 16.8535C20.9877 16.8535 21.0592 16.8439 21.1275 16.8407L21.8816 20.0609C21.9629 20.4379 22.2412 20.7416 22.6097 20.8553C22.9781 20.9691 23.3792 20.8751 23.6588 20.6096C23.9384 20.3441 24.053 19.9484 23.9584 19.5745L23.2032 16.3521C23.9269 16.0318 24.5652 15.5458 25.0667 14.9335L29.8261 35.2844C29.2081 36.0554 28.6715 36.8882 28.2251 37.7697ZM21.7077 14.6231C20.3436 14.8876 18.9507 14.3299 18.1461 13.1969L18.2816 9.44014C18.6528 9.50946 19.0294 9.54516 19.4069 9.54681C19.7716 9.54834 20.1353 9.5079 20.4907 9.42628C21.2103 9.2373 21.8834 8.90256 22.4683 8.44281L24.2645 11.758C24.0505 13.1335 23.0498 14.2557 21.7077 14.6252V14.6231ZM18.7861 2.16228C18.9314 2.12862 19.0814 2.19575 19.1531 2.32654L21.44 6.55588C21.0275 6.9291 20.5348 7.20277 20 7.35588C19.4534 7.45621 18.891 7.42957 18.3563 7.27801L18.5301 2.47161C18.5359 2.32256 18.6408 2.19585 18.7861 2.16228ZM11.0667 23.4668L11.8816 25.4359L7.93494 27.07C7.46706 27.2665 7.20238 27.7654 7.30205 28.263C7.40172 28.7606 7.83815 29.119 8.34561 29.1201C8.48575 29.1198 8.6245 29.0923 8.75414 29.0391L12.7008 27.4039L13.5168 29.3751L11.5424 30.1932C11.0718 30.3879 10.8046 30.8882 10.9043 31.3876C11.0039 31.887 11.4427 32.2463 11.952 32.2455C12.0918 32.245 12.2302 32.2175 12.3595 32.1644L14.3339 31.3463L15.1499 33.3175L11.2 34.9548C10.7294 35.1495 10.4622 35.6498 10.5619 36.1492C10.6615 36.6486 11.1003 37.0079 11.6096 37.0071C11.7494 37.0067 11.8878 36.9792 12.0171 36.926L15.9637 35.2919L16.8267 37.3751C13.3508 38.9616 10.802 42.0639 9.92001 45.7815L2.18881 27.1404L11.0667 23.4668ZM55.4667 61.8668H8.53334C4.99872 61.8668 2.13334 59.0014 2.13334 55.4668C2.13334 51.9322 4.99872 49.0668 8.53334 49.0668C9.1514 49.0648 9.76637 49.1539 10.3584 49.3313C10.6782 49.428 11.0249 49.3691 11.2949 49.1724C11.565 48.9757 11.7272 48.6638 11.7333 48.3297C11.8092 44.5282 14.0068 41.0891 17.4247 39.4231C20.8426 37.7571 24.9054 38.1447 27.9467 40.4268C28.2154 40.6268 28.5625 40.689 28.884 40.5946C29.2054 40.5003 29.4639 40.2604 29.5819 39.9468C31.6658 34.3929 37.4255 31.126 43.2618 32.1875C49.0981 33.249 53.3385 38.3348 53.3333 44.2668C53.3354 45.4867 53.1538 46.6999 52.7947 47.8657C52.6826 48.2285 52.7717 48.6234 53.0287 48.9028C53.2857 49.1823 53.6719 49.304 54.0427 49.2225C54.5104 49.1196 54.9878 49.0674 55.4667 49.0668C59.0013 49.0668 61.8667 51.9322 61.8667 55.4668C61.8667 59.0014 59.0013 61.8668 55.4667 61.8668Z" fill="#52D2BC"/>
<path d="M41.264 16.7468C41.5988 16.7481 41.9148 16.592 42.1173 16.3255C43.449 14.5231 43.9637 12.2447 43.536 10.0449C43.445 9.6688 43.1575 9.37144 42.7846 9.26791C42.4117 9.16438 42.012 9.27093 41.7402 9.54632C41.4683 9.82171 41.3669 10.2228 41.4752 10.5943C41.7306 12.1574 41.3495 13.7577 40.4171 15.038C40.1747 15.3612 40.1357 15.7937 40.3164 16.155C40.497 16.5164 40.8664 16.7447 41.2704 16.7447L41.264 16.7468Z" fill="#52D2BC"/>
<path d="M39.8614 49.0668C39.0682 49.0693 38.2859 49.2516 37.5734 49.6002C35.6545 46.9745 32.0716 46.2053 29.2441 47.812C26.4167 49.4188 25.2437 52.8905 26.5173 55.8828C26.6849 56.2761 27.0712 56.5314 27.4987 56.5314C27.6424 56.5317 27.7847 56.5027 27.9168 56.446C28.1771 56.3351 28.3826 56.1254 28.4883 55.8629C28.5939 55.6005 28.5909 55.3068 28.48 55.0466C28.2478 54.5053 28.128 53.9225 28.128 53.3335C28.128 50.9771 30.0383 49.0668 32.3947 49.0668C34.0496 49.0586 35.557 50.0176 36.2507 51.5202C36.2738 51.5549 36.2987 51.5884 36.3254 51.6204C36.3422 51.657 36.3611 51.6926 36.3819 51.7271C36.4011 51.7506 36.4288 51.7612 36.4502 51.7836C36.5002 51.8356 36.5556 51.8821 36.6155 51.9223C36.6688 51.9633 36.7259 51.999 36.7862 52.029C36.8481 52.0549 36.9124 52.0749 36.9782 52.0887C37.0437 52.1059 37.111 52.1163 37.1787 52.1196C37.3173 52.1185 37.4548 52.0955 37.5862 52.0514C37.6146 52.0461 37.6427 52.0394 37.6704 52.0311C37.705 52.0087 37.7382 51.9841 37.7696 51.9575C37.808 51.9404 37.8454 51.9212 37.8816 51.8999C38.4419 51.4468 39.1408 51.1998 39.8614 51.2002C41.1086 51.2022 42.2409 51.9287 42.7627 53.0615C43.0072 53.5976 43.6399 53.834 44.176 53.5895C44.7121 53.345 44.9485 52.7122 44.704 52.1762C43.8355 50.283 41.9443 49.0687 39.8614 49.0668Z" fill="#52D2BC"/>
<path d="M18.863 41.6544C18.7019 41.7067 14.9333 43.0101 14.9333 46.9333C14.9333 47.5224 15.4109 48 16 48C16.5891 48 17.0667 47.5224 17.0667 46.9333C17.1538 45.4453 18.1328 44.1581 19.5435 43.6768C20.1031 43.4889 20.4045 42.8828 20.2166 42.3232C20.0286 41.7636 19.4226 41.4622 18.863 41.6501V41.6544Z" fill="#52D2BC"/>
<path d="M33.8741 40.5013C33.9589 40.5228 34.0459 40.5336 34.1333 40.5333C34.6222 40.5328 35.0482 40.2 35.1669 39.7258C35.6579 37.734 37.4212 36.3172 39.472 36.2666C40.0611 36.2652 40.5375 35.7864 40.536 35.1973C40.5345 34.6082 40.0558 34.1318 39.4667 34.1333C36.4349 34.1736 33.8149 36.2612 33.0987 39.2074C32.9555 39.7789 33.3027 40.3581 33.8741 40.5013Z" fill="#52D2BC"/>
</g>
<defs>
<clipPath id="clip0">
<rect width="64" height="64" fill="white"/>
</clipPath>
</defs>
</svg>
