<svg width="64" height="64" viewBox="0 0 64 64" fill="none" xmlns="http://www.w3.org/2000/svg">
<path d="M57.6 18.1335H6.4C5.81125 18.1335 5.33337 18.6103 5.33337 19.2002V39.4668C5.33337 40.0567 5.81125 40.5334 6.4 40.5334H57.6C58.1887 40.5334 58.6666 40.0567 58.6666 39.4668V19.2002C58.6666 18.6103 58.1887 18.1335 57.6 18.1335ZM56.5334 38.4002H7.46662V20.2668H56.5332V38.4002H56.5334Z" fill="#52D2BC"/>
<path d="M27.4207 29.1126C27.0048 28.6955 26.3285 28.6955 25.9125 29.1126L21.6459 33.3793C21.2288 33.7963 21.2288 34.4705 21.6459 34.8875C21.8539 35.0955 22.127 35.2 22.4 35.2C22.6731 35.2 22.9461 35.0955 23.1541 34.8875L27.4207 30.6209C27.8379 30.2039 27.8379 29.5298 27.4207 29.1126Z" fill="#52D2BC"/>
<path d="M31.6875 33.3794L27.4208 29.1126C27.0048 28.6955 26.3285 28.6955 25.9125 29.1126C25.4954 29.5298 25.4954 30.2039 25.9125 30.6209L30.1791 34.8875C30.3871 35.0955 30.6603 35.2 30.9333 35.2C31.2064 35.2 31.4794 35.0955 31.6874 34.8875C32.1045 34.4705 32.1045 33.7964 31.6875 33.3794Z" fill="#52D2BC"/>
<path d="M33.8208 26.9791C33.4048 26.562 32.7285 26.562 32.3125 26.9791L28.0459 31.2457C27.6288 31.6627 27.6288 32.337 28.0459 32.754C28.2539 32.962 28.527 33.0665 28.8 33.0665C29.0731 33.0665 29.3461 32.962 29.5541 32.754L33.8208 28.4874C34.2379 28.0702 34.2379 27.3961 33.8208 26.9791Z" fill="#52D2BC"/>
<path d="M38.0875 31.2457L33.8209 26.9791C33.4049 26.562 32.7286 26.562 32.3126 26.9791C31.8956 27.3962 31.8956 28.0704 32.3126 28.4874L36.5793 32.754C36.7873 32.962 37.0604 33.0665 37.3334 33.0665C37.6065 33.0665 37.8795 32.962 38.0875 32.754C38.5045 32.337 38.5045 31.6627 38.0875 31.2457Z" fill="#52D2BC"/>
<path d="M59.2 0H4.8C2.15363 0 0 2.15363 0 4.8V59.2C0 61.8464 2.15363 64 4.8 64H59.2C61.8464 64 64 61.8464 64 59.2V4.8C64 2.15363 61.8464 0 59.2 0ZM61.8666 59.2C61.8666 60.6709 60.6709 61.8666 59.2 61.8666H4.8C3.33013 61.8666 2.13337 60.6709 2.13337 59.2V4.8C2.13337 3.329 3.33013 2.13337 4.8 2.13337H59.2C60.6699 2.13337 61.8666 3.32913 61.8666 4.8V59.2Z" fill="#52D2BC"/>
<path d="M9.6 4.2666H5.33338C4.74463 4.2666 4.26675 4.74335 4.26675 5.33323V9.59998C4.26675 10.1899 4.74463 10.6666 5.33338 10.6666H9.6C10.1888 10.6666 10.6666 10.1899 10.6666 9.59998V5.33335C10.6666 4.74348 10.1888 4.2666 9.6 4.2666ZM8.53338 8.53335H6.4V6.39998H8.53338V8.53335Z" fill="#52D2BC"/>
<path d="M18.1334 4.2666H13.8667C13.278 4.2666 12.8001 4.74335 12.8001 5.33323V9.59998C12.8001 10.1899 13.278 10.6666 13.8667 10.6666H18.1334C18.7221 10.6666 19.2 10.1899 19.2 9.59998V5.33335C19.2 4.74348 18.7221 4.2666 18.1334 4.2666ZM17.0666 8.53335H14.9332V6.39998H17.0666V8.53335Z" fill="#52D2BC"/>
<path d="M26.6666 4.2666H22.4C21.8112 4.2666 21.3334 4.74335 21.3334 5.33323V9.59998C21.3334 10.1899 21.8112 10.6666 22.4 10.6666H26.6666C27.2554 10.6666 27.7332 10.1899 27.7332 9.59998V5.33335C27.7334 4.74348 27.2555 4.2666 26.6666 4.2666ZM25.6 8.53335H23.4666V6.39998H25.6V8.53335Z" fill="#52D2BC"/>
<path d="M42.6421 22.4001H40.5579C39.3675 22.4001 38.4 23.3676 38.4 24.558V26.6434C38.4 27.8328 39.3675 28.8001 40.5579 28.8001H42.6421C43.8325 28.8001 44.8 27.8326 44.8 26.6423V24.5569C44.8 23.3676 43.8325 22.4001 42.6421 22.4001ZM42.6666 26.6434C42.6666 26.6551 42.656 26.6669 42.6421 26.6669L40.5334 26.6434L40.5579 24.5335L42.6666 24.558V26.6434Z" fill="#52D2BC"/>
<path d="M59.2 0H4.8C2.15363 0 0 2.15363 0 4.8V13.8666C0 14.4565 0.477875 14.9333 1.06662 14.9333H62.9333C63.522 14.9333 63.9999 14.4565 63.9999 13.8666V4.8C64 2.15363 61.8464 0 59.2 0ZM61.8666 12.8H2.13337V4.8C2.13337 3.329 3.33013 2.13337 4.8 2.13337H59.2C60.6699 2.13337 61.8666 3.32913 61.8666 4.8V12.8Z" fill="#52D2BC"/>
<path d="M44.8 43.7334H6.4C5.81125 43.7334 5.33337 44.2101 5.33337 44.8C5.33337 45.3899 5.81125 45.8666 6.4 45.8666H44.8C45.3887 45.8666 45.8666 45.3899 45.8666 44.8C45.8666 44.2101 45.3887 43.7334 44.8 43.7334Z" fill="#52D2BC"/>
<path d="M57.6 43.7334H50.1334C49.5446 43.7334 49.0667 44.2101 49.0667 44.8C49.0667 45.3899 49.5446 45.8666 50.1334 45.8666H57.6C58.1887 45.8666 58.6666 45.3899 58.6666 44.8C58.6666 44.2101 58.1887 43.7334 57.6 43.7334Z" fill="#52D2BC"/>
<path d="M57.6 48H19.2C18.6112 48 18.1334 48.4767 18.1334 49.0666C18.1334 49.6565 18.6112 50.1333 19.2 50.1333H57.6C58.1887 50.1333 58.6666 49.6565 58.6666 49.0666C58.6666 48.4767 58.1887 48 57.6 48Z" fill="#52D2BC"/>
<path d="M13.8666 48H6.4C5.81125 48 5.33337 48.4767 5.33337 49.0666C5.33337 49.6565 5.81125 50.1333 6.4 50.1333H13.8666C14.4554 50.1333 14.9332 49.6565 14.9332 49.0666C14.9334 48.4767 14.4555 48 13.8666 48Z" fill="#52D2BC"/>
<path d="M44.8 52.2666H6.4C5.81125 52.2666 5.33337 52.7434 5.33337 53.3332C5.33337 53.9231 5.81125 54.4 6.4 54.4H44.8C45.3887 54.4 45.8666 53.9232 45.8666 53.3334C45.8666 52.7435 45.3887 52.2666 44.8 52.2666Z" fill="#52D2BC"/>
<path d="M57.6 52.2666H50.1334C49.5446 52.2666 49.0667 52.7434 49.0667 53.3332C49.0667 53.9231 49.5446 54.3999 50.1334 54.3999H57.6C58.1887 54.3999 58.6666 53.9231 58.6666 53.3332C58.6666 52.7434 58.1887 52.2666 57.6 52.2666Z" fill="#52D2BC"/>
<path d="M57.6 56.5332H19.2C18.6112 56.5332 18.1334 57.01 18.1334 57.5998C18.1334 58.1897 18.6112 58.6665 19.2 58.6665H57.6C58.1887 58.6665 58.6666 58.1897 58.6666 57.5998C58.6666 57.01 58.1887 56.5332 57.6 56.5332Z" fill="#52D2BC"/>
<path d="M13.8666 56.5332H6.4C5.81125 56.5332 5.33337 57.01 5.33337 57.5998C5.33337 58.1897 5.81125 58.6665 6.4 58.6665H13.8666C14.4554 58.6665 14.9332 58.1897 14.9332 57.5998C14.9334 57.01 14.4555 56.5332 13.8666 56.5332Z" fill="#52D2BC"/>
</svg>
