<svg width="64" height="64" viewBox="0 0 64 64" fill="none" xmlns="http://www.w3.org/2000/svg">
<g clip-path="url(#clip0)">
<path d="M11.9832 17.3965C15.016 17.3965 17.4744 14.938 17.4744 11.9053C17.4744 8.87302 15.016 6.41455 11.9832 6.41455C8.95096 6.41455 6.49249 8.87302 6.49249 11.9053C6.49613 14.9365 8.952 17.3929 11.9832 17.3965ZM11.9832 8.54529C13.8393 8.54529 15.3437 10.0497 15.3437 11.9053C15.3437 13.7613 13.8393 15.2658 11.9832 15.2658C10.1277 15.2658 8.62323 13.7613 8.62323 11.9053C8.62531 10.0508 10.1287 8.54789 11.9832 8.54529Z" fill="#52D2BC"/>
<path d="M59.7568 47.3269L59.3454 36.5775L61.3502 33.8204L58.9193 29.3519L59.4073 27.8501L64.0001 25.6637V21.2128L59.4073 19.0264L58.9193 17.5246L61.3502 13.0561L58.7336 9.45734L53.7329 10.3875L52.4548 9.45838L51.7941 4.41608L47.5644 3.04067L44.065 6.73201H42.4857L38.9863 3.04067L34.7555 4.41608L34.549 5.98864L19.7519 5.10742L18.7546 4.1102L18.4789 1.87282L14.4859 0.213379L12.7068 1.60335H11.2643L9.48051 0.213379L5.48537 1.87074L5.2107 4.10812L4.18799 5.13083L1.95061 5.40602L0.290649 9.40324L1.68323 11.1865V12.6321L0.290649 14.4081L1.61092 17.5928L0.140832 36.4412C0.107539 36.6815 0.0888117 36.9234 0.0841299 37.1653V37.2048H0.0778875V37.2881C0.0747663 39.4495 1.16615 41.4658 2.97748 42.6456C4.78882 43.8254 7.07458 44.008 9.0503 43.1315L15.3551 40.5045C14.3335 43.389 15.5138 46.5924 18.1637 48.1238L8.42502 51.2617C5.20342 51.9041 2.99361 54.8844 3.31405 58.1538C3.6345 61.4233 6.38116 63.9171 9.66622 63.9223H9.7224L48.9518 61.8649L49.5526 63.3054L52.9401 64.0004L55.6899 61.3291L56.3901 61.0971L60.1922 61.5872L62.4884 59.0002L61.5494 55.2834L61.6987 54.5598L64.0235 51.5119L62.9347 48.2305L59.7568 47.3269ZM36.6922 6.02558L38.3652 5.48249L41.5696 8.86275H44.979L48.1834 5.48249L49.8574 6.02558L50.4614 10.6444L53.2205 12.6493L57.8014 11.7972L58.834 13.2194L56.6096 17.3124L57.6641 20.5563L61.8694 22.5591V24.3174L57.6641 26.3202L56.6096 29.5641L58.834 33.656L57.8014 35.0783L53.2205 34.2262L50.4614 36.231L49.8574 40.8494L48.1834 41.393L44.979 38.0127H41.5696L38.3652 41.393L36.6922 40.8494L36.0872 36.2331L33.3281 34.2272L28.7467 35.0793L27.7135 33.6571L29.9379 29.5662L28.8845 26.3212L24.6792 24.3184V22.5602L28.8845 20.5574L29.9379 17.3124L27.7135 13.2215L28.7467 11.7993L33.3281 12.6514L36.0872 10.6434L36.6922 6.02558ZM2.74131 9.07187L3.4441 7.36718L5.18001 7.15389L7.23793 5.0991L7.45121 3.36371L9.15591 2.6604L10.5334 3.73618H13.447L14.8183 2.66352L16.523 3.36683L16.7357 5.10118L18.789 7.15962L20.5244 7.37238L21.2287 9.07708L20.1524 10.4546V13.3682L21.2287 14.7457L20.5244 16.4504L18.789 16.6637L16.7305 18.7221L16.5173 20.4575L14.8131 21.1613L13.4356 20.0856H10.5272L9.14914 21.1613L7.44497 20.4575L7.23168 18.7221L5.17533 16.6528L3.44098 16.44L2.73819 14.7353L3.81397 13.3578V10.4494L2.74131 9.07187ZM2.20863 37.3073L2.22111 37.1409C2.43596 34.9456 4.37838 33.3319 6.57623 33.5239C8.77408 33.7159 10.4075 35.6416 10.2379 37.8416C10.0689 40.041 8.16024 41.6942 5.95927 41.548C3.75779 41.4013 2.08482 39.5098 2.20863 37.3073ZM21.3853 38.3534C23.7387 38.3534 25.6468 40.2615 25.6468 42.6149C25.6468 44.9683 23.7387 46.8764 21.3853 46.8764C19.0314 46.8764 17.1238 44.9683 17.1238 42.6149C17.1238 40.2615 19.0314 38.3534 21.3853 38.3534ZM5.40474 57.5301C5.40942 55.8748 6.37231 54.3725 7.87413 53.6765L8.90413 53.3451C10.4829 53.0647 12.0852 53.6952 13.0496 54.9759C14.0141 56.2572 14.1764 57.9712 13.4704 59.4106C12.764 60.85 11.3085 61.7703 9.70576 61.7916H9.65322C7.30451 61.7843 5.40474 59.8788 5.40474 57.5301ZM14.6456 61.5284C15.8072 60.09 16.2868 58.2178 15.9601 56.3982C15.6329 54.5785 14.5311 52.9903 12.9409 52.0467L23.3465 48.6992C25.5942 47.998 27.2745 46.1169 27.7193 43.8046C28.164 41.4923 27.3015 39.1228 25.4746 37.6371C23.6471 36.1519 21.1512 35.7915 18.9783 36.6987L12.5055 39.3964C13.4403 36.7361 12.518 33.7778 10.2369 32.1199C7.95528 30.4625 4.85697 30.4995 2.61543 32.2104L3.6808 18.6186L4.19735 18.6826L5.22007 19.7053L5.49525 21.9427L9.49144 23.5959L11.2705 22.2111H12.7162L14.4942 23.5959L18.4789 21.9468L18.7546 19.7095L19.7774 18.6867L22.0147 18.4105L23.6685 14.4169L22.2832 12.6384V11.1865L23.6685 9.4074L22.8502 7.43012L34.2764 8.10638L34.0995 9.45942L32.8209 10.3875L27.8212 9.45734L25.2046 13.0561L27.6345 17.5246L27.1476 19.0233L22.5547 21.2128V25.6637L27.1465 27.8501L27.6345 29.3519L25.2046 33.8204L27.8212 37.4192L32.8209 36.489L34.0995 37.4171L34.7597 42.4604L38.9904 43.8358L42.4903 40.1445H44.0692L47.5685 43.8358L51.7993 42.4604L52.46 37.4181L53.7381 36.489L57.2411 37.1409L57.496 43.8072L57.224 43.1559L53.8354 42.4594L51.0794 45.129L50.3792 45.3626L46.577 44.8726L44.2809 47.459L45.2178 51.1764L45.0685 51.8995L42.7437 54.9468L43.8356 58.2287L47.5228 59.2775L48.0757 59.7675V59.7748L14.6456 61.5284ZM59.7111 53.6541L59.3657 55.3312L60.1465 58.428L59.3464 59.3284L56.1789 58.9227L54.5554 59.4616L52.2639 61.6849L51.0846 61.4441L49.8548 58.4977L48.5767 57.3605L45.5049 56.4871L45.1236 55.3427L47.0608 52.8041L47.4047 51.1285L46.6239 48.0312L47.4239 47.1297L50.5914 47.5371L52.216 46.9976L54.5085 44.7732L55.6878 45.0162L56.9186 47.9641L58.1968 49.0987L61.2685 49.9711L61.6488 51.1155L59.7111 53.6541Z" fill="#52D2BC"/>
<path d="M8.6009 37.288C8.6009 38.4647 7.64685 39.4187 6.47016 39.4187C5.29346 39.4187 4.33942 38.4647 4.33942 37.288C4.33942 36.1113 5.29346 35.1572 6.47016 35.1572C7.64685 35.1572 8.6009 36.1113 8.6009 37.288Z" fill="#52D2BC"/>
<path d="M23.516 42.6149C23.516 43.7916 22.5619 44.7456 21.3853 44.7456C20.2086 44.7456 19.2545 43.7916 19.2545 42.6149C19.2545 41.4382 20.2086 40.4841 21.3853 40.4841C22.5619 40.4841 23.516 41.4382 23.516 42.6149Z" fill="#52D2BC"/>
<path d="M11.797 57.5302C11.797 58.7068 10.843 59.6609 9.66626 59.6609C8.48957 59.6609 7.53552 58.7068 7.53552 57.5302C7.53552 56.3535 8.48957 55.3994 9.66626 55.3994C10.843 55.3994 11.797 56.3535 11.797 57.5302Z" fill="#52D2BC"/>
<path d="M53.3465 47.9417C50.4042 47.9417 48.0196 50.3268 48.0196 53.2685C48.0196 56.2102 50.4042 58.5954 53.3465 58.5954C56.2882 58.5954 58.6733 56.2102 58.6733 53.2685C58.6697 50.3278 56.2866 47.9453 53.3465 47.9417ZM53.3465 56.4646C51.5814 56.4646 50.1503 55.0335 50.1503 53.2685C50.1503 51.5035 51.5814 50.0724 53.3465 50.0724C55.1115 50.0724 56.5426 51.5035 56.5426 53.2685C56.5426 55.0335 55.1115 56.4646 53.3465 56.4646Z" fill="#52D2BC"/>
<path d="M42.6927 34.0918C48.5767 34.0918 53.3464 29.3221 53.3464 23.4381C53.3464 17.5541 48.5767 12.7844 42.6927 12.7844C36.8087 12.7844 32.039 17.5541 32.039 23.4381C32.0452 29.3195 36.8113 34.0856 42.6927 34.0918ZM42.6927 14.9152C47.3995 14.9152 51.2157 18.7308 51.2157 23.4381C51.2157 28.1454 47.3995 31.9611 42.6927 31.9611C37.9854 31.9611 34.1697 28.1454 34.1697 23.4381C34.1749 18.7334 37.9875 14.9204 42.6927 14.9152Z" fill="#52D2BC"/>
<path d="M42.6927 29.8303C46.2228 29.8303 49.0849 26.9682 49.0849 23.4381C49.0849 19.908 46.2228 17.0459 42.6927 17.0459C39.1621 17.0459 36.3005 19.908 36.3005 23.4381C36.3041 26.9672 39.1637 29.8267 42.6927 29.8303ZM42.6927 19.1766C45.0461 19.1766 46.9542 21.0847 46.9542 23.4381C46.9542 25.7915 45.0461 27.6996 42.6927 27.6996C40.3388 27.6996 38.4312 25.7915 38.4312 23.4381C38.4312 21.0847 40.3388 19.1766 42.6927 19.1766Z" fill="#52D2BC"/>
<path d="M57.6079 3.19611C57.6079 4.96115 59.039 6.39222 60.804 6.39222C62.5691 6.39222 64.0001 4.96115 64.0001 3.19611C64.0001 1.43107 62.5691 0 60.804 0C59.039 0 57.6079 1.43107 57.6079 3.19611ZM61.8694 3.19611C61.8694 3.78446 61.3924 4.26148 60.804 4.26148C60.2157 4.26148 59.7386 3.78446 59.7386 3.19611C59.7386 2.60776 60.2157 2.13074 60.804 2.13074C61.3924 2.13074 61.8694 2.60776 61.8694 3.19611Z" fill="#52D2BC"/>
<path d="M29.9083 2.13074C29.9083 3.30744 28.9542 4.26148 27.7775 4.26148C26.6008 4.26148 25.6468 3.30744 25.6468 2.13074C25.6468 0.954048 26.6008 0 27.7775 0C28.9542 0 29.9083 0.954048 29.9083 2.13074Z" fill="#52D2BC"/>
</g>
<defs>
<clipPath id="clip0">
<rect width="64" height="64" fill="white"/>
</clipPath>
</defs>
</svg>
