<svg width="170" height="43" viewBox="0 0 170 43" fill="none" xmlns="http://www.w3.org/2000/svg">
<path d="M118.311 11C118.311 4.92487 123.236 0 129.311 0H158.186C164.261 0 169.186 4.92487 169.186 11C169.186 17.0751 164.261 22 158.186 22H118.311V11Z" fill="#FFD943"/>
<path d="M0 10.593H5.7983V36.9084H22.1227V41.8146H0V10.593Z" fill="white"/>
<path d="M48.3377 30.0396C48.3377 30.4262 48.308 30.9763 48.2485 31.6899H29.5602C29.8873 33.4443 30.7347 34.8418 32.1025 35.8825C33.5 36.8935 35.2247 37.399 37.2764 37.399C39.893 37.399 42.0488 36.5367 43.7437 34.8121L46.7321 38.2464C45.6616 39.525 44.3087 40.4914 42.6732 41.1456C41.0378 41.7998 39.1943 42.1268 37.1426 42.1268C34.5259 42.1268 32.2214 41.6065 30.2292 40.5658C28.237 39.525 26.6908 38.0829 25.5906 36.2393C24.5201 34.366 23.9849 32.2549 23.9849 29.9058C23.9849 27.5865 24.5052 25.5051 25.546 23.6615C26.6164 21.7882 28.0883 20.3312 29.9616 19.2905C31.8349 18.2497 33.9461 17.7294 36.2951 17.7294C38.6144 17.7294 40.681 18.2497 42.4948 19.2905C44.3384 20.3015 45.7657 21.7436 46.7767 23.6169C47.8174 25.4605 48.3377 27.6014 48.3377 30.0396ZM36.2951 22.1896C34.511 22.1896 32.9945 22.7248 31.7457 23.7953C30.5266 24.836 29.7832 26.2336 29.5156 27.9879H43.0301C42.7922 26.2633 42.0637 24.8658 40.8446 23.7953C39.6254 22.7248 38.1089 22.1896 36.2951 22.1896Z" fill="white"/>
<path d="M75.5587 17.997L65.3448 41.8146H59.5911L49.3772 17.997H55.1755L62.5795 35.6595L70.2064 17.997H75.5587Z" fill="white"/>
<path d="M100.78 30.0396C100.78 30.4262 100.751 30.9763 100.691 31.6899H82.0027C82.3298 33.4443 83.1772 34.8418 84.545 35.8825C85.9426 36.8935 87.6672 37.399 89.7189 37.399C92.3356 37.399 94.4914 36.5367 96.1862 34.8121L99.1746 38.2464C98.1041 39.525 96.7512 40.4914 95.1158 41.1456C93.4804 41.7998 91.6368 42.1268 89.5851 42.1268C86.9684 42.1268 84.664 41.6065 82.6717 40.5658C80.6795 39.525 79.1333 38.0829 78.0331 36.2393C76.9626 34.366 76.4274 32.2549 76.4274 29.9058C76.4274 27.5865 76.9478 25.5051 77.9885 23.6615C79.059 21.7882 80.5308 20.3312 82.4041 19.2905C84.2774 18.2497 86.3886 17.7294 88.7377 17.7294C91.057 17.7294 93.1235 18.2497 94.9374 19.2905C96.7809 20.3015 98.2082 21.7436 99.2192 23.6169C100.26 25.4605 100.78 27.6014 100.78 30.0396ZM88.7377 22.1896C86.9536 22.1896 85.4371 22.7248 84.1882 23.7953C82.9691 24.836 82.2257 26.2336 81.9581 27.9879H95.4726C95.2347 26.2633 94.5062 24.8658 93.2871 23.7953C92.068 22.7248 90.5515 22.1896 88.7377 22.1896Z" fill="white"/>
<path d="M106.136 8.71973H111.711V41.8146H106.136V8.71973Z" fill="white"/>
<path d="M134.243 7.80539C134.968 7.80539 135.614 7.96335 136.181 8.27929C136.757 8.59522 137.207 9.04124 137.533 9.61736C137.858 10.1935 138.02 10.8579 138.02 11.6105C138.02 12.3632 137.858 13.0322 137.533 13.6176C137.207 14.1937 136.757 14.6398 136.181 14.9557C135.614 15.2716 134.968 15.4296 134.243 15.4296C133.24 15.4296 132.445 15.0951 131.86 14.426V18.036H130.117V7.88902H131.776V8.86469C132.064 8.51159 132.417 8.24676 132.835 8.07021C133.263 7.89366 133.732 7.80539 134.243 7.80539ZM134.048 13.9382C134.689 13.9382 135.214 13.7245 135.623 13.297C136.041 12.8696 136.25 12.3074 136.25 11.6105C136.25 10.9136 136.041 10.3514 135.623 9.924C135.214 9.49656 134.689 9.28284 134.048 9.28284C133.63 9.28284 133.254 9.38041 132.919 9.57554C132.584 9.76138 132.32 10.0309 132.125 10.384C131.929 10.7371 131.832 11.1459 131.832 11.6105C131.832 12.0751 131.929 12.484 132.125 12.8371C132.32 13.1902 132.584 13.4643 132.919 13.6594C133.254 13.8453 133.63 13.9382 134.048 13.9382Z" fill="black"/>
<path d="M139.673 4.98987H141.415V15.332H139.673V4.98987Z" fill="black"/>
<path d="M150.908 7.88902V15.332H149.249V14.3842C148.97 14.7187 148.622 14.9789 148.204 15.1648C147.786 15.3413 147.335 15.4296 146.852 15.4296C145.858 15.4296 145.072 15.1555 144.496 14.6072C143.929 14.0497 143.646 13.2274 143.646 12.1402V7.88902H145.388V11.9032C145.388 12.5723 145.537 13.074 145.834 13.4086C146.141 13.7338 146.573 13.8964 147.131 13.8964C147.753 13.8964 148.246 13.7059 148.608 13.3249C148.98 12.9347 149.166 12.3771 149.166 11.6523V7.88902H150.908Z" fill="black"/>
<path d="M155.489 15.4296C154.885 15.4296 154.295 15.3506 153.719 15.1926C153.143 15.0347 152.683 14.8349 152.339 14.5933L153.008 13.2692C153.342 13.4922 153.742 13.6734 154.206 13.8128C154.68 13.9428 155.145 14.0079 155.6 14.0079C156.641 14.0079 157.161 13.7338 157.161 13.1855C157.161 12.9254 157.027 12.7442 156.757 12.6419C156.497 12.5397 156.074 12.4422 155.489 12.3492C154.876 12.2563 154.374 12.1495 153.983 12.0287C153.602 11.9079 153.268 11.6988 152.98 11.4014C152.701 11.0948 152.562 10.672 152.562 10.1331C152.562 9.42687 152.854 8.86469 153.44 8.44655C154.035 8.01911 154.834 7.80539 155.837 7.80539C156.348 7.80539 156.859 7.86579 157.37 7.98658C157.882 8.09809 158.3 8.25141 158.625 8.44655L157.956 9.77068C157.324 9.39899 156.613 9.21315 155.823 9.21315C155.312 9.21315 154.922 9.29213 154.653 9.4501C154.392 9.59877 154.262 9.79855 154.262 10.0494C154.262 10.3282 154.402 10.528 154.68 10.6488C154.968 10.7603 155.41 10.8671 156.005 10.9694C156.599 11.0623 157.087 11.1691 157.468 11.2899C157.849 11.4107 158.174 11.6152 158.444 11.9032C158.722 12.1913 158.862 12.6001 158.862 13.1298C158.862 13.8267 158.56 14.3842 157.956 14.8024C157.352 15.2205 156.53 15.4296 155.489 15.4296Z" fill="black"/>
</svg>
