<svg width="64" height="64" viewBox="0 0 64 64" fill="none" xmlns="http://www.w3.org/2000/svg">
<g clip-path="url(#clip0)">
<path d="M12.0353 4.05408H14.0339V6.05272H12.0353V4.05408Z" fill="#52D2BC"/>
<path d="M4.04071 12.0487H6.03936V14.0474H4.04071V12.0487Z" fill="#52D2BC"/>
<path d="M12.0353 20.0433H14.0339V22.0419H12.0353V20.0433Z" fill="#52D2BC"/>
<path d="M33.021 19.0439H31.0224V14.0473H29.0237V21.0426H33.021V19.0439Z" fill="#52D2BC"/>
<path d="M59.0026 36.0324H55.5679C54.9809 34.6818 53.8284 33.6581 52.4182 33.2345L44.2743 30.8358L45.1121 29.5427L43.4331 28.4575L42.2747 30.2473L39.0161 29.289V25.5747L42.0141 23.576V20.8425L42.5206 20.2233C43.4838 19.044 44.0108 17.5689 44.0128 16.046C44.0113 14.7759 43.2111 13.6438 42.0141 13.2188V0.0568344H22.0277V3.69255C16.9066 -1.25429 8.75883 -1.16011 3.75344 3.90383C-1.25245 8.9673 -1.25245 17.1156 3.75344 22.1795C8.75883 27.243 16.9066 27.3372 22.0277 22.3908V23.576L25.0256 25.5747V29.289L11.6236 33.2345C9.50393 33.8674 8.04789 35.8124 8.03715 38.0243V59.1237C6.33469 58.2493 4.29945 58.3249 2.66677 59.3238C1.03409 60.3221 0.0396453 62.0997 0.042573 64.0135H2.04122C2.04122 62.0817 3.60705 60.5158 5.53885 60.5158C7.47064 60.5158 9.03647 62.0817 9.03647 64.0135H11.0351C11.0351 62.8853 10.6862 61.785 10.0358 60.8637V50.0229H15.0324V64.0135H17.0311V42.0284H15.0324V48.0243H10.0358V38.0243C10.0417 36.696 10.9151 35.5279 12.1872 35.1473L25.6922 31.1759C27.2936 32.9925 29.5987 34.0338 32.0209 34.0338C34.4431 34.0338 36.7481 32.9925 38.3496 31.1759L41.1475 31.9971L40.1804 33.4961L41.8589 34.5813L43.1471 32.5909L51.8595 35.1522C52.3899 35.3122 52.8652 35.6172 53.2316 36.0324H29.0229C26.2645 36.0359 24.0297 38.2712 24.0263 41.029V64.0135H63.9992V41.029C63.9958 38.2712 61.7605 36.0359 59.0026 36.0324ZM24.0263 2.05548H26.025V4.05412H28.0236V2.05548H31.0216V4.05412H33.0202V2.05548H36.0182V4.05412H38.0168V2.05548H40.0155V7.08332C38.9176 6.09717 37.4937 5.55213 36.0182 5.55311C34.5397 5.5492 33.1134 6.1001 32.0209 7.09601C30.9284 6.1001 29.5021 5.5492 28.0236 5.55311C26.548 5.55213 25.1242 6.09717 24.0263 7.08332V2.05548ZM13.0338 24.0406C7.81611 24.0489 3.31135 20.3878 2.2525 15.2784C1.19414 10.1691 3.87298 5.01978 8.66417 2.9538C13.4558 0.887814 19.0395 2.47512 22.0277 6.75249V13.2169C20.8302 13.6423 20.0295 14.7754 20.029 16.046C20.0334 17.5191 20.5301 18.9483 21.4402 20.1062C19.3537 22.5909 16.2781 24.0303 13.0338 24.0406ZM23.067 18.9581C22.3951 18.1364 22.0282 17.1073 22.0277 16.046C22.0277 15.4941 22.4751 15.0467 23.027 15.0467H24.0263V11.549C24.0263 9.34155 25.8161 7.55175 28.0236 7.55175C29.2879 7.55126 30.476 8.15486 31.2211 9.17565L32.0209 10.2501L32.8201 9.1737C33.5662 8.15339 34.7544 7.55078 36.0182 7.55175C38.2257 7.55175 40.0155 9.34155 40.0155 11.549V15.0467H41.0148C41.5667 15.0467 42.0141 15.4941 42.0141 16.046C42.0136 17.1078 41.6462 18.1369 40.9738 18.9591L40.0155 20.1321V22.5065L34.7188 26.0392H29.3225L24.0263 22.5065V20.1321L23.067 18.9581ZM32.0209 32.0351C30.0803 32.0434 28.2417 31.1685 27.0243 29.6579V26.9068L28.7228 28.0379H35.3185L37.0175 26.9068V29.6579C35.8001 31.1685 33.961 32.0434 32.0209 32.0351ZM29.0229 38.0311H59.0026C60.6582 38.0311 62.0006 39.3734 62.0006 41.029V57.0182H26.025V41.029C26.025 39.3734 27.3673 38.0311 29.0229 38.0311ZM26.025 62.0148V59.0168H62.0006V62.0148H26.025Z" fill="#52D2BC"/>
<path d="M12.0353 12.6342L8.33075 16.3387L9.74385 17.7518L14.0339 13.4618V8.05139H12.0353V12.6342Z" fill="#52D2BC"/>
<path d="M59.0654 22.4347L63.4375 1.01611L44.7411 12.3414L53.3452 15.3394L59.0654 22.4347ZM57.9563 17.8748L55.194 14.4469L60.0667 7.53074L57.9563 17.8748ZM58.4325 6.38259L53.5609 13.2978L49.4099 11.8486L58.4325 6.38259Z" fill="#52D2BC"/>
<path d="M48.8638 20.0677L51.0333 16.7115L52.7118 17.7967L50.5419 21.1524L48.8638 20.0677Z" fill="#52D2BC"/>
<path d="M45.0627 25.9411L47.2331 22.584L48.9116 23.6692L46.7412 27.0259L45.0627 25.9411Z" fill="#52D2BC"/>
<path d="M44.0136 53.7484L48.0319 49.7301C49.2166 48.5474 49.343 46.6702 48.3271 45.3391C47.3112 44.0084 45.4672 43.6347 44.0136 44.4657C42.56 43.6347 40.716 44.0084 39.7001 45.3391C38.6842 46.6702 38.8106 48.5474 39.9953 49.7301L44.0136 53.7484ZM41.4094 46.4194C41.9339 45.8953 42.7835 45.8953 43.308 46.4194L44.0136 47.125L44.7201 46.4184C45.2442 45.8939 46.0947 45.8939 46.6187 46.4184C47.1433 46.9425 47.1433 47.793 46.6187 48.317L44.0136 50.9222L41.4094 48.318C40.8853 47.7935 40.8853 46.944 41.4094 46.4194Z" fill="#52D2BC"/>
</g>
<defs>
<clipPath id="clip0">
<rect width="64" height="64" fill="white"/>
</clipPath>
</defs>
</svg>
