<svg width="64" height="64" viewBox="0 0 64 64" fill="none" xmlns="http://www.w3.org/2000/svg">
<g clip-path="url(#clip0)">
<path d="M37.3339 14.9341C37.3339 15.5232 36.8563 16.0008 36.2672 16.0008C35.6782 16.0008 35.2006 15.5232 35.2006 14.9341C35.2006 14.345 35.6782 13.8674 36.2672 13.8674C36.8563 13.8674 37.3339 14.345 37.3339 14.9341Z" fill="#52D2BC"/>
<path d="M28.8007 14.9341C28.8007 15.5232 28.3231 16.0008 27.734 16.0008C27.145 16.0008 26.6674 15.5232 26.6674 14.9341C26.6674 14.345 27.145 13.8674 27.734 13.8674C28.3231 13.8674 28.8007 14.345 28.8007 14.9341Z" fill="#52D2BC"/>
<path d="M35.2007 42.6671C34.6116 42.6671 34.134 43.1447 34.134 43.7338C34.134 44.9119 33.1788 45.8671 32.0007 45.8671C30.822 45.8671 29.8673 44.9119 29.8673 43.7338C29.8673 42.5556 30.822 41.6004 32.0007 41.6004C32.5897 41.6004 33.0673 41.1228 33.0673 40.5338C33.0673 39.9447 32.5897 39.4671 32.0007 39.4671C29.6439 39.4671 27.734 41.377 27.734 43.7338C27.734 46.09 29.6439 48.0004 32.0007 48.0004C34.3569 48.0004 36.2673 46.09 36.2673 43.7338C36.2673 43.1447 35.7897 42.6671 35.2007 42.6671Z" fill="#52D2BC"/>
<path d="M62.9335 44.8003H54.4003C53.8112 44.8003 53.3336 45.2779 53.3336 45.867V52.2669C53.3336 53.4205 53.7076 54.5434 54.4003 55.4668H46.9337V38.4004C46.9337 36.0437 45.0233 34.1338 42.6671 34.1338H34.5709L37.7708 30.9338H41.6005C45.7239 30.9338 49.067 34.2765 49.067 38.4004V52.2669C49.067 52.8559 49.5446 53.3335 50.1337 53.3335C50.7227 53.3335 51.2003 52.8559 51.2003 52.2669V38.4004C51.2003 33.0984 46.902 28.8005 41.6005 28.8005H38.4005V26.6672C41.0864 24.6527 42.6671 21.4913 42.6671 18.134V16.4377C46.4442 14.9007 48.6061 10.906 47.8264 6.90343C47.0473 2.90036 43.5447 0.00872792 39.4672 0.000915527H18.1341C16.9555 0.000915527 16.0008 0.956111 16.0008 2.13422V8.53414C16.0034 12.0086 18.1128 15.1351 21.3341 16.4377V18.134C21.3341 21.4913 22.9148 24.6527 25.6007 26.6672V28.8005H22.4007C17.0987 28.8005 12.8009 33.0984 12.8009 38.4004V52.2669C12.8009 52.8559 13.2785 53.3335 13.8675 53.3335C14.4566 53.3335 14.9342 52.8559 14.9342 52.2669V38.4004C14.9342 34.2765 18.2768 30.9338 22.4007 30.9338H26.2298L29.4298 34.1338H21.3341C18.9773 34.1338 17.0675 36.0437 17.0675 38.4004V55.4668H10.6676V53.3335C10.6676 51.5664 9.23477 50.1336 7.4676 50.1336H5.3343C3.56661 50.1336 2.13434 51.5664 2.13434 53.3335V55.4668H1.06769C0.478635 55.4668 0.0010376 55.9444 0.0010376 56.5335V62.9334C0.0010376 63.5225 0.478635 64.0001 1.06769 64.0001H62.9335C63.5226 64.0001 64.0002 63.5225 64.0002 62.9334V56.5335C64.0002 55.9444 63.5226 55.4668 62.9335 55.4668C63.6257 54.5434 64.0002 53.4205 64.0002 52.2669V45.867C64.0002 45.2779 63.5226 44.8003 62.9335 44.8003ZM23.4674 18.134V9.60079H32.0006C32.5897 9.60079 33.0673 9.12319 33.0673 8.53414C33.0673 7.94508 32.5897 7.46748 32.0006 7.46748H22.4007C21.8117 7.46748 21.3341 7.94508 21.3341 8.53414V14.07C19.356 12.9278 18.1362 10.818 18.1341 8.53414V2.13422H39.4672C42.3593 2.13943 44.8884 4.08315 45.6374 6.87687C46.3863 9.67006 45.1686 12.619 42.6671 14.07V8.53414C42.6671 7.94508 42.1895 7.46748 41.6005 7.46748H37.3339C36.7448 7.46748 36.2672 7.94508 36.2672 8.53414C36.2672 9.12319 36.7448 9.60079 37.3339 9.60079H40.5338V18.134C40.5338 22.8464 36.713 26.6672 32.0006 26.6672C27.2876 26.6672 23.4674 22.8464 23.4674 18.134ZM32.0006 28.8005C33.4693 28.8011 34.9224 28.4958 36.2672 27.9042V29.4297L32.0006 33.6963L27.734 29.4297V27.9042C29.0782 28.4958 30.5313 28.8011 32.0006 28.8005ZM19.2008 38.4004C19.2008 37.2223 20.1554 36.2671 21.3341 36.2671H42.6671C43.8452 36.2671 44.8004 37.2223 44.8004 38.4004V51.2002H19.2008V38.4004ZM19.2008 53.3335H44.8004V55.4668H19.2008V53.3335ZM4.26765 53.3335C4.26765 52.7445 4.74524 52.2669 5.3343 52.2669H7.4676C8.05666 52.2669 8.53425 52.7445 8.53425 53.3335V55.4668H4.26765V53.3335ZM61.8669 61.8668H2.13434V57.6002H61.8669V61.8668ZM55.4669 52.2669V46.9336H61.8669V52.2669C61.8669 54.0341 60.4341 55.4668 58.6669 55.4668C56.8992 55.4668 55.4669 54.0341 55.4669 52.2669Z" fill="#52D2BC"/>
<path d="M58.2185 35.7338C58.0373 35.3864 57.68 35.1666 57.2878 35.1614C56.8961 35.1562 56.5331 35.3661 56.342 35.7083C56.1513 36.0505 56.1633 36.4697 56.3732 36.8005C56.6258 37.2604 56.58 37.827 56.256 38.2406C55.3399 39.3395 55.204 40.8921 55.9149 42.1338C56.106 42.4651 56.4602 42.6687 56.843 42.6671C57.0258 42.6666 57.206 42.6187 57.3654 42.5286C57.6123 42.3875 57.793 42.1541 57.867 41.8796C57.9409 41.6057 57.9024 41.313 57.7602 41.0671C57.5076 40.6067 57.554 40.0406 57.8774 39.627C58.7935 38.5281 58.9295 36.9755 58.2185 35.7338Z" fill="#52D2BC"/>
<path d="M62.4851 35.7338C62.3039 35.3864 61.9466 35.1666 61.5544 35.1614C61.1627 35.1562 60.7997 35.3661 60.6086 35.7083C60.418 36.0505 60.4299 36.4697 60.6398 36.8005C60.8924 37.2604 60.8466 37.827 60.5226 38.2406C59.6065 39.3395 59.4706 40.8921 60.1815 42.1338C60.3726 42.4651 60.7268 42.6687 61.1096 42.6671C61.2924 42.6666 61.4726 42.6187 61.632 42.5286C61.8789 42.3875 62.0596 42.1541 62.1336 41.8796C62.2075 41.6057 62.169 41.313 62.0268 41.0671C61.7742 40.6067 61.8206 40.0406 62.144 39.627C63.0601 38.5281 63.1961 36.9755 62.4851 35.7338Z" fill="#52D2BC"/>
<path d="M10.1234 25.7818C10.5547 25.7797 10.9427 25.5183 11.1063 25.1193C11.2698 24.7198 11.1766 24.2615 10.8703 23.9578C8.78751 21.8755 5.41147 21.8755 3.32866 23.9578C2.91043 24.3761 2.91043 25.0542 3.32866 25.4724C3.74689 25.8907 4.42501 25.8907 4.84376 25.4724C6.09272 24.2245 8.11668 24.2245 9.36616 25.4724C9.56772 25.6719 9.84011 25.7834 10.1234 25.7818Z" fill="#52D2BC"/>
<path d="M1.82413 22.4538C4.73972 19.5377 9.46778 19.5377 12.3839 22.4538C12.8 22.8673 13.4719 22.8673 13.888 22.4538C14.3016 22.0377 14.3016 21.3658 13.888 20.9502C10.1386 17.1997 4.05848 17.1997 0.309566 20.9502C-0.104491 21.3658 -0.104491 22.0377 0.309566 22.4538C0.509564 22.6559 0.782477 22.7694 1.06685 22.7694C1.35122 22.7694 1.62361 22.6559 1.82413 22.4538Z" fill="#52D2BC"/>
<path d="M8.17136 27.7338C8.17136 28.3229 7.69375 28.8005 7.10469 28.8005C6.51563 28.8005 6.03802 28.3229 6.03802 27.7338C6.03802 27.1448 6.51563 26.6672 7.10469 26.6672C7.69375 26.6672 8.17136 27.1448 8.17136 27.7338Z" fill="#52D2BC"/>
<path d="M7.10469 38.4005C7.69375 38.4005 8.17136 37.9229 8.17136 37.3338V32.0005C8.17136 31.4114 7.69375 30.9338 7.10469 30.9338C6.51563 30.9338 6.03802 31.4114 6.03802 32.0005V37.3338C6.03802 37.9229 6.51563 38.4005 7.10469 38.4005Z" fill="#52D2BC"/>
<path d="M62.1653 8.84353C63.4033 7.0696 63.1184 4.64984 61.5018 3.21288C59.8851 1.7754 57.4487 1.7754 55.8321 3.21288C54.2154 4.64984 53.93 7.0696 55.168 8.84353C54.0493 9.37113 53.3347 10.4966 53.3337 11.7341V16.0007C53.3337 16.5898 53.8113 17.0674 54.4003 17.0674C54.9894 17.0674 55.467 16.5898 55.467 16.0007V11.7341C55.467 11.1451 55.9446 10.6675 56.5336 10.6675H60.8002C61.3893 10.6675 61.8669 11.1451 61.8669 11.7341V16.0007C61.8669 16.5898 62.3445 17.0674 62.9335 17.0674C63.5226 17.0674 64.0002 16.5898 64.0002 16.0007V11.7341C63.9986 10.4966 63.284 9.37113 62.1653 8.84353ZM58.6669 4.26755C59.845 4.26755 60.8002 5.22275 60.8002 6.40086C60.8002 7.57896 59.845 8.53416 58.6669 8.53416C57.4883 8.53416 56.5336 7.57896 56.5336 6.40086C56.5336 5.22275 57.4883 4.26755 58.6669 4.26755Z" fill="#52D2BC"/>
<path d="M50.1337 29.8672H56.5336C58.8899 29.8672 60.8002 27.9568 60.8002 25.6006V20.2673C60.8002 19.6783 60.3226 19.2007 59.7336 19.2007C59.1445 19.2007 58.6669 19.6783 58.6669 20.2673V25.6006C58.6669 26.7787 57.7117 27.7339 56.5336 27.7339H50.1337C49.5447 27.7339 49.0671 28.2115 49.0671 28.8006C49.0671 29.3896 49.5447 29.8672 50.1337 29.8672Z" fill="#52D2BC"/>
</g>
<defs>
<clipPath id="clip0">
<rect width="64" height="64" fill="white"/>
</clipPath>
</defs>
</svg>
