<svg width="64" height="64" viewBox="0 0 64 64" fill="none" xmlns="http://www.w3.org/2000/svg">
<path d="M61 1H3C1.34312 1 0 2.34312 0 4V48C0 48.5522 0.44775 49 1 49H23.78L22.18 57H20C19.4478 57 19 57.4478 19 58V61H17V63H47V61H45V58C45 57.4478 44.5522 57 44 57H41.8184L40.2184 49H63C63.5522 49 64 48.5522 64 48V4C64 2.34312 62.6569 1 61 1ZM41 59H43V61H21V59H23H41ZM24.22 57L25.8185 49H38.18L39.78 57H24.22ZM62 47H2V38H16H22H28H34H40H48H62V47ZM48 10H40C39.4478 10 39 10.4478 39 11V20H41V12H47V16H43V18H47V23H43V25H47V30H43V32H47V36H41V28H39V36H35V31C35 26.919 39.956 26.022 40.164 25.986C40.2873 25.9654 40.4055 25.9219 40.5127 25.8576C40.9866 25.5739 41.1407 24.9597 40.857 24.486L31.857 9.486C31.7845 9.38025 31.6931 9.28888 31.5874 9.21638C31.1141 8.892 30.4674 9.01262 30.143 9.486L21.143 24.486C21.0791 24.5925 21.0356 24.71 21.0149 24.8325C20.9223 25.377 21.2885 25.8934 21.833 25.986C22.044 26.022 27 26.919 27 31V36H23V28H21V36H20V18H21V20H23V17C23.0002 16.8645 22.9727 16.7304 22.919 16.606L19.919 9.606C19.8179 9.37025 19.63 9.18237 19.3943 9.08125C18.8868 8.8635 18.2987 9.0985 18.081 9.606L15.081 16.606C15.0273 16.7304 14.9998 16.8645 15 17V36H7V8H57V36H49V11C49 10.4478 48.5522 10 48 10ZM29 33V32H33V33H29ZM33 35V36H29V35H33ZM28.927 30C28.448 26.82 25.725 25.1 23.547 24.365L30 13.6106V22H32V13.6106L38.453 24.365C36.273 25.095 33.552 26.82 33.073 30H28.927ZM17.5144 16L19 12.534L20.4856 16H17.5144ZM18 18V36H17V18H18ZM62 36H59V7C59 6.44775 58.5522 6 58 6H6C5.44775 6 5 6.44775 5 7V36H2V4C2 3.44775 2.44775 3 3 3H61C61.5522 3 62 3.44775 62 4V36Z" fill="#52D2BC"/>
<path d="M32 39C30.3431 39 29 40.3431 29 42C29 43.6569 30.3431 45 32 45C33.6569 45 35 43.6569 35 42C35 40.3431 33.6569 39 32 39ZM32 43C31.4478 43 31 42.5522 31 42C31 41.4478 31.4478 41 32 41C32.5522 41 33 41.4478 33 42C33 42.5522 32.5522 43 32 43Z" fill="#52D2BC"/>
</svg>
